<?xml version="1.0" encoding="UTF-8" standalone="no"?>
<!-- Created with Inkscape (http://www.inkscape.org/) -->

<svg
   xmlns:osb="http://www.openswatchbook.org/uri/2009/osb"
   xmlns:dc="http://purl.org/dc/elements/1.1/"
   xmlns:cc="http://creativecommons.org/ns#"
   xmlns:rdf="http://www.w3.org/1999/02/22-rdf-syntax-ns#"
   xmlns:svg="http://www.w3.org/2000/svg"
   xmlns="http://www.w3.org/2000/svg"
   xmlns:xlink="http://www.w3.org/1999/xlink"
   xmlns:sodipodi="http://sodipodi.sourceforge.net/DTD/sodipodi-0.dtd"
   xmlns:inkscape="http://www.inkscape.org/namespaces/inkscape"
   width="603"
   height="429.26001"
   id="svg2"
   version="1.1"
   inkscape:version="0.48.4 r9939"
   sodipodi:docname="market4w.pdf">
  <defs
     id="defs4">
    <linearGradient
       id="linearGradient4161"
       osb:paint="solid">
      <stop
         style="stop-color:#000000;stop-opacity:1;"
         offset="0"
         id="stop4163" />
    </linearGradient>
    <marker
       inkscape:stockid="Arrow1Lend"
       orient="auto"
       refY="0"
       refX="0"
       id="Arrow1Lend"
       style="overflow:visible">
      <path
         id="path3827"
         d="M 0,0 5,-5 -12.5,0 5,5 0,0 z"
         style="fill-rule:evenodd;stroke:#000000;stroke-width:1pt"
         transform="matrix(-0.8,0,0,-0.8,-10,0)"
         inkscape:connector-curvature="0" />
    </marker>
    <marker
       inkscape:stockid="Arrow1Lend"
       orient="auto"
       refY="0"
       refX="0"
       id="Arrow1Lend-9"
       style="overflow:visible">
      <path
         inkscape:connector-curvature="0"
         id="path3827-4"
         d="M 0,0 5,-5 -12.5,0 5,5 0,0 z"
         style="fill-rule:evenodd;stroke:#000000;stroke-width:1pt"
         transform="matrix(-0.8,0,0,-0.8,-10,0)" />
    </marker>
    <marker
       inkscape:stockid="Arrow1Lend"
       orient="auto"
       refY="0"
       refX="0"
       id="Arrow1Lend-8"
       style="overflow:visible">
      <path
         inkscape:connector-curvature="0"
         id="path3827-2"
         d="M 0,0 5,-5 -12.5,0 5,5 0,0 z"
         style="fill-rule:evenodd;stroke:#000000;stroke-width:1pt"
         transform="matrix(-0.8,0,0,-0.8,-10,0)" />
    </marker>
    <marker
       inkscape:stockid="Arrow1Lend"
       orient="auto"
       refY="0"
       refX="0"
       id="marker4664"
       style="overflow:visible">
      <path
         inkscape:connector-curvature="0"
         id="path4666"
         d="M 0,0 5,-5 -12.5,0 5,5 0,0 z"
         style="fill-rule:evenodd;stroke:#000000;stroke-width:1pt"
         transform="matrix(-0.8,0,0,-0.8,-10,0)" />
    </marker>
    <marker
       inkscape:stockid="Arrow1Lend"
       orient="auto"
       refY="0"
       refX="0"
       id="Arrow1Lend-7"
       style="overflow:visible">
      <path
         inkscape:connector-curvature="0"
         id="path3827-1"
         d="M 0,0 5,-5 -12.5,0 5,5 0,0 z"
         style="fill-rule:evenodd;stroke:#000000;stroke-width:1pt"
         transform="matrix(-0.8,0,0,-0.8,-10,0)" />
    </marker>
    <marker
       inkscape:stockid="Arrow1Lend"
       orient="auto"
       refY="0"
       refX="0"
       id="marker4705"
       style="overflow:visible">
      <path
         inkscape:connector-curvature="0"
         id="path4707"
         d="M 0,0 5,-5 -12.5,0 5,5 0,0 z"
         style="fill-rule:evenodd;stroke:#000000;stroke-width:1pt"
         transform="matrix(-0.8,0,0,-0.8,-10,0)" />
    </marker>
    <marker
       inkscape:stockid="Arrow1Lend"
       orient="auto"
       refY="0"
       refX="0"
       id="Arrow1Lend-1"
       style="overflow:visible">
      <path
         inkscape:connector-curvature="0"
         id="path3827-7"
         d="M 0,0 5,-5 -12.5,0 5,5 0,0 z"
         style="fill-rule:evenodd;stroke:#000000;stroke-width:1pt"
         transform="matrix(-0.8,0,0,-0.8,-10,0)" />
    </marker>
    <marker
       inkscape:stockid="Arrow1Lend"
       orient="auto"
       refY="0"
       refX="0"
       id="marker3039"
       style="overflow:visible">
      <path
         inkscape:connector-curvature="0"
         id="path3041"
         d="M 0,0 5,-5 -12.5,0 5,5 0,0 z"
         style="fill-rule:evenodd;stroke:#000000;stroke-width:1pt"
         transform="matrix(-0.8,0,0,-0.8,-10,0)" />
    </marker>
    <marker
       inkscape:stockid="Arrow1Lend"
       orient="auto"
       refY="0"
       refX="0"
       id="Arrow1Lend-94"
       style="overflow:visible">
      <path
         inkscape:connector-curvature="0"
         id="path3827-8"
         d="M 0,0 5,-5 -12.5,0 5,5 0,0 z"
         style="fill-rule:evenodd;stroke:#000000;stroke-width:1pt"
         transform="matrix(-0.8,0,0,-0.8,-10,0)" />
    </marker>
    <marker
       inkscape:stockid="Arrow1Lend"
       orient="auto"
       refY="0"
       refX="0"
       id="marker3074"
       style="overflow:visible">
      <path
         inkscape:connector-curvature="0"
         id="path3076"
         d="M 0,0 5,-5 -12.5,0 5,5 0,0 z"
         style="fill-rule:evenodd;stroke:#000000;stroke-width:1pt"
         transform="matrix(-0.8,0,0,-0.8,-10,0)" />
    </marker>
    <linearGradient
       inkscape:collect="always"
       xlink:href="#linearGradient4161-1"
       id="linearGradient4165-7"
       x1="98.994949"
       y1="383.13611"
       x2="211.12189"
       y2="383.13611"
       gradientUnits="userSpaceOnUse"
       gradientTransform="matrix(0.75011188,0,0,1.0031617,50.60512,-37.211355)" />
    <linearGradient
       id="linearGradient4161-1"
       osb:paint="solid">
      <stop
         style="stop-color:#000000;stop-opacity:1;"
         offset="0"
         id="stop4163-2" />
    </linearGradient>
    <linearGradient
       inkscape:collect="always"
       xlink:href="#linearGradient4161-4"
       id="linearGradient4165-0"
       x1="98.994949"
       y1="383.13611"
       x2="211.12189"
       y2="383.13611"
       gradientUnits="userSpaceOnUse"
       gradientTransform="matrix(0.75011188,0,0,1.0031617,50.60512,-37.211355)" />
    <linearGradient
       id="linearGradient4161-4"
       osb:paint="solid">
      <stop
         style="stop-color:#000000;stop-opacity:1;"
         offset="0"
         id="stop4163-9" />
    </linearGradient>
    <linearGradient
       inkscape:collect="always"
       xlink:href="#linearGradient4161-6"
       id="linearGradient4165-3"
       x1="98.994949"
       y1="383.13611"
       x2="211.12189"
       y2="383.13611"
       gradientUnits="userSpaceOnUse"
       gradientTransform="matrix(0.75011188,0,0,1.0031617,50.60512,-37.211355)" />
    <linearGradient
       id="linearGradient4161-6"
       osb:paint="solid">
      <stop
         style="stop-color:#000000;stop-opacity:1;"
         offset="0"
         id="stop4163-24" />
    </linearGradient>
    <marker
       inkscape:stockid="Arrow1Lend"
       orient="auto"
       refY="0"
       refX="0"
       id="Arrow1Lend-17"
       style="overflow:visible">
      <path
         id="path3827-40"
         d="M 0,0 5,-5 -12.5,0 5,5 0,0 z"
         style="fill-rule:evenodd;stroke:#000000;stroke-width:1pt"
         transform="matrix(-0.8,0,0,-0.8,-10,0)"
         inkscape:connector-curvature="0" />
    </marker>
    <marker
       inkscape:stockid="Arrow1Lend"
       orient="auto"
       refY="0"
       refX="0"
       id="Arrow1Lend-5"
       style="overflow:visible">
      <path
         id="path3827-17"
         d="M 0,0 5,-5 -12.5,0 5,5 0,0 z"
         style="fill-rule:evenodd;stroke:#000000;stroke-width:1pt"
         transform="matrix(-0.8,0,0,-0.8,-10,0)"
         inkscape:connector-curvature="0" />
    </marker>
    <marker
       inkscape:stockid="Arrow1Lend"
       orient="auto"
       refY="0"
       refX="0"
       id="Arrow1Lend-6"
       style="overflow:visible">
      <path
         id="path3827-14"
         d="M 0,0 5,-5 -12.5,0 5,5 0,0 z"
         style="fill-rule:evenodd;stroke:#000000;stroke-width:1pt"
         transform="matrix(-0.8,0,0,-0.8,-10,0)"
         inkscape:connector-curvature="0" />
    </marker>
    <marker
       inkscape:stockid="Arrow1Lend"
       orient="auto"
       refY="0"
       refX="0"
       id="Arrow1Lend-174"
       style="overflow:visible">
      <path
         id="path3827-0"
         d="M 0,0 5,-5 -12.5,0 5,5 0,0 z"
         style="fill-rule:evenodd;stroke:#000000;stroke-width:1pt"
         transform="matrix(-0.8,0,0,-0.8,-10,0)"
         inkscape:connector-curvature="0" />
    </marker>
    <marker
       inkscape:stockid="Arrow1Lend"
       orient="auto"
       refY="0"
       refX="0"
       id="Arrow1Lend-55"
       style="overflow:visible">
      <path
         id="path3827-171"
         d="M 0,0 5,-5 -12.5,0 5,5 0,0 z"
         style="fill-rule:evenodd;stroke:#000000;stroke-width:1pt"
         transform="matrix(-0.8,0,0,-0.8,-10,0)"
         inkscape:connector-curvature="0" />
    </marker>
    <marker
       inkscape:stockid="Arrow1Lend"
       orient="auto"
       refY="0"
       refX="0"
       id="Arrow1Lend-82"
       style="overflow:visible">
      <path
         id="path3827-45"
         d="M 0,0 5,-5 -12.5,0 5,5 0,0 z"
         style="fill-rule:evenodd;stroke:#000000;stroke-width:1pt"
         transform="matrix(-0.8,0,0,-0.8,-10,0)"
         inkscape:connector-curvature="0" />
    </marker>
    <marker
       inkscape:stockid="Arrow1Lend"
       orient="auto"
       refY="0"
       refX="0"
       id="Arrow1Lend-93"
       style="overflow:visible">
      <path
         id="path3827-44"
         d="M 0,0 5,-5 -12.5,0 5,5 0,0 z"
         style="fill-rule:evenodd;stroke:#000000;stroke-width:1pt"
         transform="matrix(-0.8,0,0,-0.8,-10,0)"
         inkscape:connector-curvature="0" />
    </marker>
    <marker
       inkscape:stockid="Arrow1Lend"
       orient="auto"
       refY="0"
       refX="0"
       id="Arrow1Lend-4"
       style="overflow:visible">
      <path
         id="path3827-88"
         d="M 0,0 5,-5 -12.5,0 5,5 0,0 z"
         style="fill-rule:evenodd;stroke:#000000;stroke-width:1pt"
         transform="matrix(-0.8,0,0,-0.8,-10,0)"
         inkscape:connector-curvature="0" />
    </marker>
    <marker
       inkscape:stockid="Arrow1Lend"
       orient="auto"
       refY="0"
       refX="0"
       id="Arrow1Lend-45"
       style="overflow:visible">
      <path
         id="path3827-5"
         d="M 0,0 5,-5 -12.5,0 5,5 0,0 z"
         style="fill-rule:evenodd;stroke:#000000;stroke-width:1pt"
         transform="matrix(-0.8,0,0,-0.8,-10,0)"
         inkscape:connector-curvature="0" />
    </marker>
    <marker
       inkscape:stockid="Arrow1Lend"
       orient="auto"
       refY="0"
       refX="0"
       id="Arrow1Lend-71"
       style="overflow:visible">
      <path
         id="path3827-15"
         d="M 0,0 5,-5 -12.5,0 5,5 0,0 z"
         style="fill-rule:evenodd;stroke:#000000;stroke-width:1pt"
         transform="matrix(-0.8,0,0,-0.8,-10,0)"
         inkscape:connector-curvature="0" />
    </marker>
    <marker
       inkscape:stockid="Arrow1Lend"
       orient="auto"
       refY="0"
       refX="0"
       id="Arrow1Lend-57"
       style="overflow:visible">
      <path
         id="path3827-6"
         d="M 0,0 5,-5 -12.5,0 5,5 0,0 z"
         style="fill-rule:evenodd;stroke:#000000;stroke-width:1pt"
         transform="matrix(-0.8,0,0,-0.8,-10,0)"
         inkscape:connector-curvature="0" />
    </marker>
    <marker
       inkscape:stockid="Arrow1Lend"
       orient="auto"
       refY="0"
       refX="0"
       id="Arrow1Lend-43"
       style="overflow:visible">
      <path
         id="path3827-12"
         d="M 0,0 5,-5 -12.5,0 5,5 0,0 z"
         style="fill-rule:evenodd;stroke:#000000;stroke-width:1pt"
         transform="matrix(-0.8,0,0,-0.8,-10,0)"
         inkscape:connector-curvature="0" />
    </marker>
    <marker
       inkscape:stockid="Arrow1Lend"
       orient="auto"
       refY="0"
       refX="0"
       id="Arrow1Lend-3"
       style="overflow:visible">
      <path
         id="path3827-41"
         d="M 0,0 5,-5 -12.5,0 5,5 0,0 z"
         style="fill-rule:evenodd;stroke:#000000;stroke-width:1pt"
         transform="matrix(-0.8,0,0,-0.8,-10,0)"
         inkscape:connector-curvature="0" />
    </marker>
    <marker
       inkscape:stockid="Arrow1Lend"
       orient="auto"
       refY="0"
       refX="0"
       id="marker3404"
       style="overflow:visible">
      <path
         id="path3406"
         d="M 0,0 5,-5 -12.5,0 5,5 0,0 z"
         style="fill-rule:evenodd;stroke:#000000;stroke-width:1pt"
         transform="matrix(-0.8,0,0,-0.8,-10,0)"
         inkscape:connector-curvature="0" />
    </marker>
    <marker
       inkscape:stockid="Arrow1Lend"
       orient="auto"
       refY="0"
       refX="0"
       id="marker3408"
       style="overflow:visible">
      <path
         id="path3410"
         d="M 0,0 5,-5 -12.5,0 5,5 0,0 z"
         style="fill-rule:evenodd;stroke:#000000;stroke-width:1pt"
         transform="matrix(-0.8,0,0,-0.8,-10,0)"
         inkscape:connector-curvature="0" />
    </marker>
    <marker
       inkscape:stockid="Arrow1Lend"
       orient="auto"
       refY="0"
       refX="0"
       id="Arrow1Lend-89"
       style="overflow:visible">
      <path
         id="path3827-3"
         d="M 0,0 5,-5 -12.5,0 5,5 0,0 z"
         style="fill-rule:evenodd;stroke:#000000;stroke-width:1pt"
         transform="matrix(-0.8,0,0,-0.8,-10,0)"
         inkscape:connector-curvature="0" />
    </marker>
    <marker
       inkscape:stockid="Arrow1Lend"
       orient="auto"
       refY="0"
       refX="0"
       id="Arrow1Lend-46"
       style="overflow:visible">
      <path
         id="path3827-06"
         d="M 0,0 5,-5 -12.5,0 5,5 0,0 z"
         style="fill-rule:evenodd;stroke:#000000;stroke-width:1pt"
         transform="matrix(-0.8,0,0,-0.8,-10,0)"
         inkscape:connector-curvature="0" />
    </marker>
    <marker
       inkscape:stockid="Arrow1Lend"
       orient="auto"
       refY="0"
       refX="0"
       id="Arrow1Lend-18"
       style="overflow:visible">
      <path
         id="path3827-49"
         d="M 0,0 5,-5 -12.5,0 5,5 0,0 z"
         style="fill-rule:evenodd;stroke:#000000;stroke-width:1pt"
         transform="matrix(-0.8,0,0,-0.8,-10,0)"
         inkscape:connector-curvature="0" />
    </marker>
    <marker
       inkscape:stockid="Arrow1Lend"
       orient="auto"
       refY="0"
       refX="0"
       id="Arrow1Lend-15"
       style="overflow:visible">
      <path
         id="path3827-42"
         d="M 0,0 5,-5 -12.5,0 5,5 0,0 z"
         style="fill-rule:evenodd;stroke:#000000;stroke-width:1pt"
         transform="matrix(-0.8,0,0,-0.8,-10,0)"
         inkscape:connector-curvature="0" />
    </marker>
    <marker
       inkscape:stockid="Arrow1Lend"
       orient="auto"
       refY="0"
       refX="0"
       id="Arrow1Lend-97"
       style="overflow:visible">
      <path
         id="path3827-37"
         d="M 0,0 5,-5 -12.5,0 5,5 0,0 z"
         style="fill-rule:evenodd;stroke:#000000;stroke-width:1pt"
         transform="matrix(-0.8,0,0,-0.8,-10,0)"
         inkscape:connector-curvature="0" />
    </marker>
    <marker
       inkscape:stockid="Arrow1Lend"
       orient="auto"
       refY="0"
       refX="0"
       id="Arrow1Lend-60"
       style="overflow:visible">
      <path
         id="path3827-16"
         d="M 0,0 5,-5 -12.5,0 5,5 0,0 z"
         style="fill-rule:evenodd;stroke:#000000;stroke-width:1pt"
         transform="matrix(-0.8,0,0,-0.8,-10,0)"
         inkscape:connector-curvature="0" />
    </marker>
    <marker
       inkscape:stockid="Arrow1Lend"
       orient="auto"
       refY="0"
       refX="0"
       id="Arrow1Lend-1740"
       style="overflow:visible">
      <path
         id="path3827-9"
         d="M 0,0 5,-5 -12.5,0 5,5 0,0 z"
         style="fill-rule:evenodd;stroke:#000000;stroke-width:1pt"
         transform="matrix(-0.8,0,0,-0.8,-10,0)"
         inkscape:connector-curvature="0" />
    </marker>
    <marker
       inkscape:stockid="Arrow1Lend"
       orient="auto"
       refY="0"
       refX="0"
       id="Arrow1Lend-88"
       style="overflow:visible">
      <path
         id="path3827-24"
         d="M 0,0 5,-5 -12.5,0 5,5 0,0 z"
         style="fill-rule:evenodd;stroke:#000000;stroke-width:1pt"
         transform="matrix(-0.8,0,0,-0.8,-10,0)"
         inkscape:connector-curvature="0" />
    </marker>
    <marker
       inkscape:stockid="Arrow1Lend"
       orient="auto"
       refY="0"
       refX="0"
       id="Arrow1Lend-51"
       style="overflow:visible">
      <path
         id="path3827-71"
         d="M 0,0 5,-5 -12.5,0 5,5 0,0 z"
         style="fill-rule:evenodd;stroke:#000000;stroke-width:1pt"
         transform="matrix(-0.8,0,0,-0.8,-10,0)"
         inkscape:connector-curvature="0" />
    </marker>
  </defs>
  <sodipodi:namedview
     id="base"
     pagecolor="#ffffff"
     bordercolor="#666666"
     borderopacity="1.0"
     inkscape:pageopacity="0.0"
     inkscape:pageshadow="2"
     inkscape:zoom="1.15"
     inkscape:cx="180.10986"
     inkscape:cy="236.99538"
     inkscape:document-units="px"
     inkscape:current-layer="layer1"
     showgrid="false"
     showguides="true"
     inkscape:guide-bbox="true"
     inkscape:window-width="1920"
     inkscape:window-height="1018"
     inkscape:window-x="-8"
     inkscape:window-y="-8"
     inkscape:window-maximized="1"
     fit-margin-top="-2.7755576e-017"
     fit-margin-left="0"
     fit-margin-right="0"
     fit-margin-bottom="0"
     inkscape:snap-global="true">
    <sodipodi:guide
       orientation="0,1"
       position="601.32704,913.88927"
       id="guide3007" />
  </sodipodi:namedview>
  <metadata
     id="metadata7">
    <rdf:RDF>
      <cc:Work
         rdf:about="">
        <dc:format>image/svg+xml</dc:format>
        <dc:type
           rdf:resource="http://purl.org/dc/dcmitype/StillImage" />
        <dc:title></dc:title>
      </cc:Work>
    </rdf:RDF>
  </metadata>
  <g
     inkscape:label="Layer 1"
     inkscape:groupmode="layer"
     id="layer1"
     transform="translate(-10.101525,-199.85283)">
    <path
       sodipodi:type="arc"
       style="fill:none;stroke:#000000;stroke-width:3.0869813;stroke-linecap:butt;stroke-linejoin:miter;stroke-miterlimit:4;stroke-opacity:1;stroke-dasharray:none"
       id="path3009-1"
       sodipodi:cx="391.42856"
       sodipodi:cy="143.79076"
       sodipodi:rx="65.714287"
       sodipodi:ry="62.857143"
       d="m 457.14285,143.79076 c 0,34.71504 -29.42129,62.85714 -65.71429,62.85714 -36.293,0 -65.71429,-28.1421 -65.71429,-62.85714 0,-34.71505 29.42129,-62.857147 65.71429,-62.857147 36.293,0 65.71429,28.142097 65.71429,62.857147 z"
       transform="matrix(0.63470696,0,0,0.66133079,-185.03741,152.49203)" />
    <text
       xml:space="preserve"
       style="font-size:7.48815584px;font-style:oblique;font-weight:normal;line-height:125%;letter-spacing:0px;word-spacing:0px;baseline-shift:sub;fill:#000000;fill-opacity:1;stroke:none;font-family:Sans;-inkscape-font-specification:Sans Oblique"
       x="307.39792"
       y="276.88824"
       id="text4734"
       sodipodi:linespacing="125%"
       transform="scale(0.99622312,1.0037912)"><tspan
         sodipodi:role="line"
         id="tspan4736"
         x="307.39792"
         y="276.88824" /></text>
    <text
       xml:space="preserve"
       style="font-size:38.40025711px;font-style:normal;font-weight:normal;line-height:125%;letter-spacing:0px;word-spacing:0px;fill:#000000;fill-opacity:1;stroke:none;font-family:Sans"
       x="300.60962"
       y="264.28156"
       id="text4738"
       sodipodi:linespacing="125%"
       transform="scale(0.99622312,1.0037912)"><tspan
         sodipodi:role="line"
         id="tspan4740"
         x="0"
         y="0"><tspan
           style="font-size:24.96051979px;baseline-shift:sub"
           id="tspan4742" /></tspan></text>
    <flowRoot
       xml:space="preserve"
       id="flowRoot4744"
       style="font-size:40px;font-style:normal;font-weight:normal;line-height:125%;letter-spacing:0px;word-spacing:0px;fill:#000000;fill-opacity:1;stroke:none;font-family:Sans"
       transform="matrix(0.95638062,0,0,0.96364603,-41.5559,214.87407)"><flowRegion
         id="flowRegion4746"><rect
           id="rect4748"
           width="61.619305"
           height="43.436558"
           x="360.62445"
           y="37.158875" /></flowRegion><flowPara
         id="flowPara4750" /></flowRoot>    <text
       xml:space="preserve"
       style="font-size:38.40025711px;font-style:normal;font-weight:normal;line-height:125%;letter-spacing:0px;word-spacing:0px;fill:#000000;fill-opacity:1;stroke:none;font-family:Sans"
       x="52.532326"
       y="259.26846"
       id="text3021"
       sodipodi:linespacing="125%"
       transform="scale(0.99622312,1.0037912)"><tspan
         sodipodi:role="line"
         id="tspan3023"
         x="52.532326"
         y="259.26846"
         style="font-style:normal;font-variant:normal;font-weight:normal;font-stretch:normal;font-family:Serif;-inkscape-font-specification:Serif">θ<tspan
   style="font-size:24.96051788px;baseline-shift:sub"
   id="tspan3141">1</tspan></tspan></text>
    <path
       sodipodi:type="arc"
       style="fill:none;stroke-width:1.20000005;stroke-miterlimit:4;stroke-dasharray:none;stroke-dashoffset:0.71999973"
       id="path3099"
       sodipodi:cx="212.13203"
       sodipodi:cy="417.48129"
       sodipodi:rx="58.588848"
       sodipodi:ry="57.07362"
       d="m 270.72088,417.48129 c 0,31.52089 -26.23112,57.07362 -58.58885,57.07362 -32.35772,0 -58.58884,-25.55273 -58.58884,-57.07362 0,-31.52089 26.23112,-57.07362 58.58884,-57.07362 32.35773,0 58.58885,25.55273 58.58885,57.07362 z"
       transform="matrix(0.95638062,0,0,0.96364603,-169.5559,204.87407)" />
    <flowRoot
       xml:space="preserve"
       id="flowRoot3109"
       style="font-size:40px;font-style:normal;font-weight:normal;line-height:125%;letter-spacing:0px;word-spacing:0px;fill:#000000;fill-opacity:1;stroke:none;font-family:Sans"
       transform="matrix(0.95638062,0,0,0.96364603,-41.5559,214.87407)"><flowRegion
         id="flowRegion3111"><rect
           id="rect3113"
           width="153.54318"
           height="89.90358"
           x="171.72594"
           y="476.57523" /></flowRegion><flowPara
         id="flowPara3115" /></flowRoot>    <rect
       style="fill:none;stroke-width:1.20000005;stroke-miterlimit:4;stroke-dasharray:none;stroke-dashoffset:0.71999973"
       id="rect3123"
       width="299.48798"
       height="264.77283"
       x="-15.557243"
       y="556.33893" />
    <rect
       style="fill:none;stroke-width:2;stroke-miterlimit:4;stroke-dasharray:none;stroke-dashoffset:0.71999973"
       id="rect4175"
       width="187.42152"
       height="454.59158"
       x="378.7612"
       y="12.029968" />
    <rect
       style="fill:none;stroke-width:0.1;stroke-miterlimit:4;stroke-dasharray:none;stroke-dashoffset:0.71999973"
       id="rect4177"
       width="642.45007"
       height="582.11084"
       x="-29.894997"
       y="9.1096497" />
    <flowRoot
       xml:space="preserve"
       id="flowRoot3165"
       style="font-size:40px;font-style:normal;font-weight:normal;line-height:125%;letter-spacing:0px;word-spacing:0px;fill:#000000;fill-opacity:1;stroke:none;font-family:Sans"
       transform="translate(10.101525,209.85065)"><flowRegion
         id="flowRegion3167"><rect
           id="rect3169"
           width="412.97711"
           height="437.40457"
           x="70.229004"
           y="-140.96901" /></flowRegion><flowPara
         id="flowPara3171" /></flowRoot>    <path
       style="fill:none;stroke:#000000;stroke-width:1.92001307;stroke-linecap:butt;stroke-linejoin:miter;stroke-miterlimit:4;stroke-opacity:1;stroke-dasharray:none;marker-start:none;marker-end:url(#Arrow1Lend)"
       d="M 79.915587,285.96017 190.42896,382.26204"
       id="path3050-5-1"
       inkscape:connector-curvature="0"
       sodipodi:nodetypes="cc" />
    <text
       xml:space="preserve"
       style="font-size:40px;font-style:normal;font-weight:normal;line-height:125%;letter-spacing:0px;word-spacing:0px;fill:#000000;fill-opacity:1;stroke:none;font-family:Sans"
       x="296.1832"
       y="271.45847"
       id="text3214"
       sodipodi:linespacing="125%"
       transform="translate(10.101525,211.85054)"><tspan
         sodipodi:role="line"
         id="tspan3216"
         x="296.1832"
         y="271.45847" /></text>
    <path
       sodipodi:type="arc"
       style="fill:#000000;fill-opacity:0.15686275;stroke:#000000;stroke-width:2.96352196;stroke-linecap:butt;stroke-linejoin:miter;stroke-miterlimit:4;stroke-opacity:1;stroke-dasharray:none"
       id="path3009-1-4-5-8"
       sodipodi:cx="391.42856"
       sodipodi:cy="143.79076"
       sodipodi:rx="65.714287"
       sodipodi:ry="62.857143"
       d="m 457.14285,143.79076 c 0,34.71504 -29.42129,62.85714 -65.71429,62.85714 -36.293,0 -65.71429,-28.1421 -65.71429,-62.85714 0,-34.71505 29.42129,-62.857147 65.71429,-62.857147 36.293,0 65.71429,28.142097 65.71429,62.857147 z"
       transform="matrix(0.65724516,0,0,0.68489346,-31.71262,472.26279)" />
    <path
       style="fill:none;stroke:#000000;stroke-width:1.92001295;stroke-linecap:butt;stroke-linejoin:miter;stroke-miterlimit:4;stroke-opacity:1;stroke-dasharray:none;marker-start:none;marker-end:url(#Arrow1Lend)"
       d="m 224.26009,288.91913 0.0786,75.4323"
       id="path3050-5-1-6"
       inkscape:connector-curvature="0" />
    <text
       xml:space="preserve"
       style="font-size:38.40025711px;font-style:normal;font-weight:normal;line-height:125%;letter-spacing:0px;word-spacing:0px;fill:#000000;fill-opacity:1;stroke:none;font-family:Sans"
       x="213.80313"
       y="578.93768"
       id="text3009-1"
       sodipodi:linespacing="125%"
       transform="scale(0.99622312,1.0037912)"><tspan
         sodipodi:role="line"
         id="tspan3011-7"
         x="213.80313"
         y="578.93768"
         style="font-size:38px;font-style:normal;font-variant:normal;font-weight:normal;font-stretch:normal;font-family:Serif;-inkscape-font-specification:Serif"><tspan
           style="font-size:39px"
           id="tspan4154">d</tspan><tspan
           style="font-size:24.7003479px;baseline-shift:sub"
           id="tspan4152">t</tspan></tspan></text>
    <text
       xml:space="preserve"
       style="font-size:40px;font-style:normal;font-weight:normal;line-height:125%;letter-spacing:0px;word-spacing:0px;fill:#000000;fill-opacity:1;stroke:none;font-family:Sans"
       x="183.20612"
       y="72.985199"
       id="text3133"
       sodipodi:linespacing="125%"
       transform="translate(10.101525,211.85054)"><tspan
         sodipodi:role="line"
         id="tspan3135"
         x="183.20612"
         y="72.985199" /></text>
    <text
       xml:space="preserve"
       style="font-size:40px;font-style:normal;font-weight:normal;line-height:125%;letter-spacing:0px;word-spacing:0px;fill:#000000;fill-opacity:1;stroke:none;font-family:Sans"
       x="176.33588"
       y="65.351616"
       id="text3137"
       sodipodi:linespacing="125%"
       transform="translate(10.101525,211.85054)"><tspan
         sodipodi:role="line"
         id="tspan3139"
         x="176.33588"
         y="65.351616" /></text>
    <path
       style="fill:none;stroke:#000000;stroke-width:1.90997028;stroke-linecap:butt;stroke-linejoin:miter;stroke-miterlimit:4;stroke-opacity:1;stroke-dasharray:none;stroke-dashoffset:1.15200727;marker-start:none;marker-end:url(#Arrow1Lend)"
       d="m 105.38691,248.1254 70.99445,-1.44885"
       id="path3050-8-1-2-1"
       inkscape:connector-curvature="0" />
    <path
       sodipodi:type="arc"
       style="fill:none;stroke:#000000;stroke-width:3.0869813;stroke-linecap:butt;stroke-linejoin:miter;stroke-miterlimit:4;stroke-opacity:1;stroke-dasharray:none"
       id="path3009-1-2"
       sodipodi:cx="391.42856"
       sodipodi:cy="143.79076"
       sodipodi:rx="65.714287"
       sodipodi:ry="62.857143"
       d="m 457.14285,143.79076 c 0,34.71504 -29.42129,62.85714 -65.71429,62.85714 -36.293,0 -65.71429,-28.1421 -65.71429,-62.85714 0,-34.71505 29.42129,-62.857147 65.71429,-62.857147 36.293,0 65.71429,28.142097 65.71429,62.857147 z"
       transform="matrix(0.63470696,0,0,0.66133079,-25.53712,152.27816)" />
    <text
       xml:space="preserve"
       style="font-size:38.40025711px;font-style:normal;font-weight:normal;line-height:125%;letter-spacing:0px;word-spacing:0px;fill:#000000;fill-opacity:1;stroke:none;font-family:Sans"
       x="212.63766"
       y="259.05576"
       id="text3021-7"
       sodipodi:linespacing="125%"
       transform="scale(0.99622312,1.0037912)"><tspan
         sodipodi:role="line"
         id="tspan3023-6"
         x="212.63766"
         y="259.05576"
         style="font-style:normal;font-variant:normal;font-weight:normal;font-stretch:normal;font-family:Serif;-inkscape-font-specification:Serif">θ<tspan
   style="font-size:24.96051788px;baseline-shift:sub"
   id="tspan3143">2</tspan></tspan></text>
    <path
       sodipodi:type="arc"
       style="fill:#000000;fill-opacity:1;stroke:#000000;stroke-width:1.54349065;stroke-linecap:butt;stroke-linejoin:miter;stroke-miterlimit:1;stroke-opacity:1;stroke-dasharray:none"
       id="path3009-1-9-8-8-22"
       sodipodi:cx="391.42856"
       sodipodi:cy="143.79076"
       sodipodi:rx="65.714287"
       sodipodi:ry="62.857143"
       d="m 457.14285,143.79076 c 0,34.71504 -29.42129,62.85714 -65.71429,62.85714 -36.293,0 -65.71429,-28.1421 -65.71429,-62.85714 0,-34.71505 29.42129,-62.857147 65.71429,-62.857147 36.293,0 65.71429,28.142097 65.71429,62.857147 z"
       transform="matrix(0.0499089,0,0,0.05796461,338.60447,238.76344)" />
    <path
       sodipodi:type="arc"
       style="fill:#000000;fill-opacity:1;stroke:#000000;stroke-width:1.54349065;stroke-linecap:butt;stroke-linejoin:miter;stroke-miterlimit:1;stroke-opacity:1;stroke-dasharray:none"
       id="path3009-1-9-8-8-2-1"
       sodipodi:cx="391.42856"
       sodipodi:cy="143.79076"
       sodipodi:rx="65.714287"
       sodipodi:ry="62.857143"
       d="m 457.14285,143.79076 c 0,34.71504 -29.42129,62.85714 -65.71429,62.85714 -36.293,0 -65.71429,-28.1421 -65.71429,-62.85714 0,-34.71505 29.42129,-62.857147 65.71429,-62.857147 36.293,0 65.71429,28.142097 65.71429,62.857147 z"
       transform="matrix(0.0499089,0,0,0.05796461,361.30249,239.69492)" />
    <path
       sodipodi:type="arc"
       style="fill:#000000;fill-opacity:1;stroke:#000000;stroke-width:1.54349065;stroke-linecap:butt;stroke-linejoin:miter;stroke-miterlimit:1;stroke-opacity:1;stroke-dasharray:none"
       id="path3009-1-9-8-8-4-6"
       sodipodi:cx="391.42856"
       sodipodi:cy="143.79076"
       sodipodi:rx="65.714287"
       sodipodi:ry="62.857143"
       d="m 457.14285,143.79076 c 0,34.71504 -29.42129,62.85714 -65.71429,62.85714 -36.293,0 -65.71429,-28.1421 -65.71429,-62.85714 0,-34.71505 29.42129,-62.857147 65.71429,-62.857147 36.293,0 65.71429,28.142097 65.71429,62.857147 z"
       transform="matrix(0.0499089,0,0,0.05796461,384.17683,240.1175)" />
    <path
       sodipodi:type="arc"
       style="fill:#000000;fill-opacity:1;stroke:#000000;stroke-width:1.54349065;stroke-linecap:butt;stroke-linejoin:miter;stroke-miterlimit:1;stroke-opacity:1;stroke-dasharray:none"
       id="path3009-1-9-8-8-2-5-8"
       sodipodi:cx="391.42856"
       sodipodi:cy="143.79076"
       sodipodi:rx="65.714287"
       sodipodi:ry="62.857143"
       d="m 457.14285,143.79076 c 0,34.71504 -29.42129,62.85714 -65.71429,62.85714 -36.293,0 -65.71429,-28.1421 -65.71429,-62.85714 0,-34.71505 29.42129,-62.857147 65.71429,-62.857147 36.293,0 65.71429,28.142097 65.71429,62.857147 z"
       transform="matrix(0.0499089,0,0,0.05796461,406.87486,241.04898)" />
    <path
       sodipodi:type="arc"
       style="fill:none;stroke:#000000;stroke-width:3.0869813;stroke-linecap:butt;stroke-linejoin:miter;stroke-miterlimit:4;stroke-opacity:1;stroke-dasharray:none"
       id="path3009-1-2-8"
       sodipodi:cx="391.42856"
       sodipodi:cy="143.79076"
       sodipodi:rx="65.714287"
       sodipodi:ry="62.857143"
       d="m 457.14285,143.79076 c 0,34.71504 -29.42129,62.85714 -65.71429,62.85714 -36.293,0 -65.71429,-28.1421 -65.71429,-62.85714 0,-34.71505 29.42129,-62.857147 65.71429,-62.857147 36.293,0 65.71429,28.142097 65.71429,62.857147 z"
       transform="matrix(0.63470696,0,0,0.66133079,317.03939,152.0173)" />
    <text
       xml:space="preserve"
       style="font-size:38.40025711px;font-style:normal;font-weight:normal;line-height:125%;letter-spacing:0px;word-spacing:0px;fill:#000000;fill-opacity:1;stroke:none;font-family:Sans"
       x="556.51154"
       y="258.79657"
       id="text3021-7-9"
       sodipodi:linespacing="125%"
       transform="scale(0.99622312,1.0037912)"><tspan
         sodipodi:role="line"
         id="tspan3023-6-2"
         x="556.51154"
         y="258.79657"
         style="font-style:normal;font-variant:normal;font-weight:normal;font-stretch:normal;font-family:Serif;-inkscape-font-specification:Serif">θ<tspan
   style="font-size:64.99999996%;baseline-shift:sub"
   id="tspan4180">D</tspan></tspan></text>
    <path
       style="fill:none;stroke:#000000;stroke-width:1.91999984;stroke-linecap:butt;stroke-linejoin:miter;stroke-miterlimit:4;stroke-opacity:1;stroke-dasharray:none;marker-start:none;marker-end:url(#Arrow1Lend)"
       d="M 532.3072,271.91614 261.08146,382.13106"
       id="path3050-5-1-6-3"
       inkscape:connector-curvature="0"
       sodipodi:nodetypes="cc" />
    <path
       style="fill:none;stroke:#000000;stroke-width:1.90997028;stroke-linecap:butt;stroke-linejoin:miter;stroke-miterlimit:4;stroke-opacity:1;stroke-dasharray:none;stroke-dashoffset:1.15200727;marker-start:none;marker-end:url(#Arrow1Lend)"
       d="m 90.91458,409.27933 89.25532,-1.44885"
       id="path3050-8-1-2-1-7"
       inkscape:connector-curvature="0" />
    <path
       sodipodi:type="arc"
       style="fill:none;stroke:#000000;stroke-width:3.0869813;stroke-linecap:butt;stroke-linejoin:miter;stroke-miterlimit:4;stroke-opacity:1;stroke-dasharray:none"
       id="path3009-1-2-9"
       sodipodi:cx="391.42856"
       sodipodi:cy="143.79076"
       sodipodi:rx="65.714287"
       sodipodi:ry="62.857143"
       d="m 457.14285,143.79076 c 0,34.71504 -29.42129,62.85714 -65.71429,62.85714 -36.293,0 -65.71429,-28.1421 -65.71429,-62.85714 0,-34.71505 29.42129,-62.857147 65.71429,-62.857147 36.293,0 65.71429,28.142097 65.71429,62.857147 z"
       transform="matrix(0.63470696,0,0,0.66133079,-23.74858,313.43209)" />
    <text
       xml:space="preserve"
       style="font-size:38.40025711px;font-style:normal;font-weight:normal;line-height:125%;letter-spacing:0px;word-spacing:0px;fill:#000000;fill-opacity:1;stroke:none;font-family:Sans"
       x="214.43251"
       y="419.60034"
       id="text3021-7-3"
       sodipodi:linespacing="125%"
       transform="scale(0.99622312,1.0037912)"><tspan
         sodipodi:role="line"
         id="tspan3023-6-1"
         x="214.43251"
         y="419.60034"
         style="font-style:normal;font-variant:normal;font-weight:normal;font-stretch:normal;font-family:Serif;-inkscape-font-specification:Serif">θ<tspan
   style="font-size:24.96051788px;baseline-shift:sub"
   id="tspan3136">t</tspan></tspan></text>
    <text
       xml:space="preserve"
       style="font-size:38.40025711px;font-style:normal;font-weight:normal;line-height:125%;letter-spacing:0px;word-spacing:0px;fill:#000000;fill-opacity:1;stroke:none;font-family:Sans"
       x="213.7081"
       y="390.02982"
       id="text3009-2-9-0"
       sodipodi:linespacing="125%"
       transform="scale(0.99622312,1.0037912)"><tspan
         sodipodi:role="line"
         id="tspan3011-2-0-6"
         x="213.7081"
         y="390.02982"
         style="font-size:36px;font-style:normal;font-variant:normal;font-weight:normal;font-stretch:normal;baseline-shift:sub;font-family:Serif;-inkscape-font-specification:Serif">~</tspan></text>
    <rect
       style="fill:#000000;fill-opacity:0.19607843;stroke:#000000;stroke-width:2;stroke-miterlimit:4;stroke-opacity:1;stroke-dasharray:none;stroke-dashoffset:0"
       id="rect3567"
       width="44.347828"
       height="45.217392"
       x="46.884109"
       y="385.89316" />
    <text
       xml:space="preserve"
       style="font-size:38.40025711px;font-style:normal;font-weight:normal;line-height:125%;letter-spacing:0px;word-spacing:0px;fill:#000000;fill-opacity:1;stroke:none;font-family:Sans"
       x="58.952087"
       y="412.85605"
       id="text3021-78"
       sodipodi:linespacing="125%"
       transform="scale(0.99622312,1.0037912)"><tspan
         sodipodi:role="line"
         id="tspan3023-8"
         x="58.952087"
         y="412.85605"
         style="font-style:normal;font-variant:normal;font-weight:normal;font-stretch:normal;font-family:Serif;-inkscape-font-specification:Serif">τ<tspan
   style="font-size:24.96051788px;baseline-shift:sub"
   id="tspan4755">t</tspan></tspan></text>
    <rect
       style="fill:#000000;fill-opacity:0.19607843;stroke:#000000;stroke-width:2;stroke-miterlimit:4;stroke-opacity:1;stroke-dasharray:none;stroke-dashoffset:0"
       id="rect3567-4"
       width="44.347828"
       height="45.217392"
       x="47.492836"
       y="466.24097" />
    <text
       xml:space="preserve"
       style="font-size:38.40025711px;font-style:normal;font-weight:normal;line-height:125%;letter-spacing:0px;word-spacing:0px;fill:#000000;fill-opacity:1;stroke:none;font-family:Sans"
       x="57.554611"
       y="492.90054"
       id="text3021-78-0"
       sodipodi:linespacing="125%"
       transform="scale(0.99622312,1.0037912)"><tspan
         sodipodi:role="line"
         id="tspan3023-8-7"
         x="57.554611"
         y="492.90054"
         style="font-style:normal;font-variant:normal;font-weight:normal;font-stretch:normal;font-family:Serif;-inkscape-font-specification:Serif">a<tspan
   style="font-size:24.96051788px;baseline-shift:sub"
   id="tspan4757">t</tspan></tspan></text>
    <rect
       style="fill:#000000;fill-opacity:0.19607843;stroke:#000000;stroke-width:2;stroke-miterlimit:4;stroke-opacity:1;stroke-dasharray:none;stroke-dashoffset:0"
       id="rect3567-6"
       width="44.347828"
       height="45.217392"
       x="45.927582"
       y="549.11053" />
    <text
       xml:space="preserve"
       style="font-size:38.40025711px;font-style:normal;font-weight:normal;line-height:125%;letter-spacing:0px;word-spacing:0px;fill:#000000;fill-opacity:1;stroke:none;font-family:Sans"
       x="55.984337"
       y="577.44867"
       id="text3021-78-3"
       sodipodi:linespacing="125%"
       transform="scale(0.99622312,1.0037912)"><tspan
         sodipodi:role="line"
         id="tspan3023-8-6"
         x="55.984337"
         y="577.44867"
         style="font-style:normal;font-variant:normal;font-weight:normal;font-stretch:normal;font-family:Serif;-inkscape-font-specification:Serif">b<tspan
   style="font-size:24.96051788px;baseline-shift:sub"
   id="tspan4759">t</tspan></tspan></text>
    <path
       style="fill:none;stroke:#000000;stroke-width:1.92001307;stroke-linecap:butt;stroke-linejoin:miter;stroke-miterlimit:4;stroke-opacity:1;stroke-dasharray:none;marker-start:none;marker-end:url(#Arrow1Lend)"
       d="m 92.30722,491.04658 93.12207,56.30186"
       id="path3050-5-1-0"
       inkscape:connector-curvature="0"
       sodipodi:nodetypes="cc" />
    <path
       style="fill:none;stroke:#000000;stroke-width:1.92001295;stroke-linecap:butt;stroke-linejoin:miter;stroke-miterlimit:4;stroke-opacity:1;stroke-dasharray:none;marker-start:none;marker-end:url(#Arrow1Lend)"
       d="m 91.27962,572.177 86.16556,0.64969"
       id="path3050-5-1-0-2"
       inkscape:connector-curvature="0"
       sodipodi:nodetypes="cc" />
    <rect
       style="fill:none;stroke:#000000;stroke-width:1.91999996;stroke-miterlimit:4;stroke-opacity:1;stroke-dasharray:none;stroke-dashoffset:0"
       id="rect4746"
       width="593.04346"
       height="304.34781"
       x="15.405861"
       y="319.9801" />
    <text
       xml:space="preserve"
       style="font-size:40px;font-style:normal;font-variant:normal;font-weight:normal;font-stretch:normal;line-height:125%;letter-spacing:0px;word-spacing:0px;fill:#000000;fill-opacity:1;stroke:none;font-family:Serif;-inkscape-font-specification:Serif"
       x="504.71021"
       y="608.50183"
       id="text4751"
       sodipodi:linespacing="125%"><tspan
         sodipodi:role="line"
         id="tspan4753"
         x="504.71021"
         y="608.50183"
         style="font-size:36px">t=1:n</tspan></text>
    <path
       style="fill:none;stroke:#000000;stroke-width:1.90997028;stroke-linecap:butt;stroke-linejoin:miter;stroke-miterlimit:4;stroke-opacity:1;stroke-dasharray:none;stroke-dashoffset:1.15200727;marker-start:none;marker-end:url(#Arrow1Lend)"
       d="m 264.25647,248.36354 70.99445,-1.44885"
       id="path3050-8-1-2-1-4"
       inkscape:connector-curvature="0" />
    <path
       style="fill:none;stroke:#000000;stroke-width:1.90997028;stroke-linecap:butt;stroke-linejoin:miter;stroke-miterlimit:4;stroke-opacity:1;stroke-dasharray:none;stroke-dashoffset:1.15200727;marker-start:none;marker-end:url(#Arrow1Lend)"
       d="m 447.38691,249.23311 70.99445,-1.44885"
       id="path3050-8-1-2-1-4-5"
       inkscape:connector-curvature="0" />
    <path
       style="fill:none;stroke:#000000;stroke-width:1.92001295;stroke-linecap:butt;stroke-linejoin:miter;stroke-miterlimit:4;stroke-opacity:1;stroke-dasharray:none;marker-start:none;marker-end:url(#Arrow1Lend)"
       d="m 225.09441,449.8312 0.0786,75.4323"
       id="path3050-5-1-6-1"
       inkscape:connector-curvature="0" />
  </g>
</svg>
