<?xml version="1.0" encoding="UTF-8" standalone="no"?>
<!-- Created with Inkscape (http://www.inkscape.org/) -->

<svg
   xmlns:osb="http://www.openswatchbook.org/uri/2009/osb"
   xmlns:dc="http://purl.org/dc/elements/1.1/"
   xmlns:cc="http://creativecommons.org/ns#"
   xmlns:rdf="http://www.w3.org/1999/02/22-rdf-syntax-ns#"
   xmlns:svg="http://www.w3.org/2000/svg"
   xmlns="http://www.w3.org/2000/svg"
   xmlns:xlink="http://www.w3.org/1999/xlink"
   xmlns:sodipodi="http://sodipodi.sourceforge.net/DTD/sodipodi-0.dtd"
   xmlns:inkscape="http://www.inkscape.org/namespaces/inkscape"
   width="414"
   height="322.26001"
   id="svg2"
   version="1.1"
   inkscape:version="0.48.4 r9939"
   sodipodi:docname="momentum2.svg">
  <defs
     id="defs4">
    <linearGradient
       id="linearGradient4161"
       osb:paint="solid">
      <stop
         style="stop-color:#000000;stop-opacity:1;"
         offset="0"
         id="stop4163" />
    </linearGradient>
    <marker
       inkscape:stockid="Arrow1Lend"
       orient="auto"
       refY="0"
       refX="0"
       id="Arrow1Lend"
       style="overflow:visible">
      <path
         id="path3827"
         d="M 0,0 5,-5 -12.5,0 5,5 0,0 z"
         style="fill-rule:evenodd;stroke:#000000;stroke-width:1pt"
         transform="matrix(-0.8,0,0,-0.8,-10,0)"
         inkscape:connector-curvature="0" />
    </marker>
    <marker
       inkscape:stockid="Arrow1Lend"
       orient="auto"
       refY="0"
       refX="0"
       id="Arrow1Lend-9"
       style="overflow:visible">
      <path
         inkscape:connector-curvature="0"
         id="path3827-4"
         d="M 0,0 5,-5 -12.5,0 5,5 0,0 z"
         style="fill-rule:evenodd;stroke:#000000;stroke-width:1pt"
         transform="matrix(-0.8,0,0,-0.8,-10,0)" />
    </marker>
    <marker
       inkscape:stockid="Arrow1Lend"
       orient="auto"
       refY="0"
       refX="0"
       id="Arrow1Lend-8"
       style="overflow:visible">
      <path
         inkscape:connector-curvature="0"
         id="path3827-2"
         d="M 0,0 5,-5 -12.5,0 5,5 0,0 z"
         style="fill-rule:evenodd;stroke:#000000;stroke-width:1pt"
         transform="matrix(-0.8,0,0,-0.8,-10,0)" />
    </marker>
    <marker
       inkscape:stockid="Arrow1Lend"
       orient="auto"
       refY="0"
       refX="0"
       id="marker4664"
       style="overflow:visible">
      <path
         inkscape:connector-curvature="0"
         id="path4666"
         d="M 0,0 5,-5 -12.5,0 5,5 0,0 z"
         style="fill-rule:evenodd;stroke:#000000;stroke-width:1pt"
         transform="matrix(-0.8,0,0,-0.8,-10,0)" />
    </marker>
    <marker
       inkscape:stockid="Arrow1Lend"
       orient="auto"
       refY="0"
       refX="0"
       id="Arrow1Lend-7"
       style="overflow:visible">
      <path
         inkscape:connector-curvature="0"
         id="path3827-1"
         d="M 0,0 5,-5 -12.5,0 5,5 0,0 z"
         style="fill-rule:evenodd;stroke:#000000;stroke-width:1pt"
         transform="matrix(-0.8,0,0,-0.8,-10,0)" />
    </marker>
    <marker
       inkscape:stockid="Arrow1Lend"
       orient="auto"
       refY="0"
       refX="0"
       id="marker4705"
       style="overflow:visible">
      <path
         inkscape:connector-curvature="0"
         id="path4707"
         d="M 0,0 5,-5 -12.5,0 5,5 0,0 z"
         style="fill-rule:evenodd;stroke:#000000;stroke-width:1pt"
         transform="matrix(-0.8,0,0,-0.8,-10,0)" />
    </marker>
    <marker
       inkscape:stockid="Arrow1Lend"
       orient="auto"
       refY="0"
       refX="0"
       id="Arrow1Lend-1"
       style="overflow:visible">
      <path
         inkscape:connector-curvature="0"
         id="path3827-7"
         d="M 0,0 5,-5 -12.5,0 5,5 0,0 z"
         style="fill-rule:evenodd;stroke:#000000;stroke-width:1pt"
         transform="matrix(-0.8,0,0,-0.8,-10,0)" />
    </marker>
    <marker
       inkscape:stockid="Arrow1Lend"
       orient="auto"
       refY="0"
       refX="0"
       id="marker3039"
       style="overflow:visible">
      <path
         inkscape:connector-curvature="0"
         id="path3041"
         d="M 0,0 5,-5 -12.5,0 5,5 0,0 z"
         style="fill-rule:evenodd;stroke:#000000;stroke-width:1pt"
         transform="matrix(-0.8,0,0,-0.8,-10,0)" />
    </marker>
    <marker
       inkscape:stockid="Arrow1Lend"
       orient="auto"
       refY="0"
       refX="0"
       id="Arrow1Lend-94"
       style="overflow:visible">
      <path
         inkscape:connector-curvature="0"
         id="path3827-8"
         d="M 0,0 5,-5 -12.5,0 5,5 0,0 z"
         style="fill-rule:evenodd;stroke:#000000;stroke-width:1pt"
         transform="matrix(-0.8,0,0,-0.8,-10,0)" />
    </marker>
    <marker
       inkscape:stockid="Arrow1Lend"
       orient="auto"
       refY="0"
       refX="0"
       id="marker3074"
       style="overflow:visible">
      <path
         inkscape:connector-curvature="0"
         id="path3076"
         d="M 0,0 5,-5 -12.5,0 5,5 0,0 z"
         style="fill-rule:evenodd;stroke:#000000;stroke-width:1pt"
         transform="matrix(-0.8,0,0,-0.8,-10,0)" />
    </marker>
    <linearGradient
       inkscape:collect="always"
       xlink:href="#linearGradient4161-1"
       id="linearGradient4165-7"
       x1="98.994949"
       y1="383.13611"
       x2="211.12189"
       y2="383.13611"
       gradientUnits="userSpaceOnUse"
       gradientTransform="matrix(0.75011188,0,0,1.0031617,50.60512,-37.211355)" />
    <linearGradient
       id="linearGradient4161-1"
       osb:paint="solid">
      <stop
         style="stop-color:#000000;stop-opacity:1;"
         offset="0"
         id="stop4163-2" />
    </linearGradient>
    <linearGradient
       inkscape:collect="always"
       xlink:href="#linearGradient4161-4"
       id="linearGradient4165-0"
       x1="98.994949"
       y1="383.13611"
       x2="211.12189"
       y2="383.13611"
       gradientUnits="userSpaceOnUse"
       gradientTransform="matrix(0.75011188,0,0,1.0031617,50.60512,-37.211355)" />
    <linearGradient
       id="linearGradient4161-4"
       osb:paint="solid">
      <stop
         style="stop-color:#000000;stop-opacity:1;"
         offset="0"
         id="stop4163-9" />
    </linearGradient>
    <linearGradient
       inkscape:collect="always"
       xlink:href="#linearGradient4161-6"
       id="linearGradient4165-3"
       x1="98.994949"
       y1="383.13611"
       x2="211.12189"
       y2="383.13611"
       gradientUnits="userSpaceOnUse"
       gradientTransform="matrix(0.75011188,0,0,1.0031617,50.60512,-37.211355)" />
    <linearGradient
       id="linearGradient4161-6"
       osb:paint="solid">
      <stop
         style="stop-color:#000000;stop-opacity:1;"
         offset="0"
         id="stop4163-24" />
    </linearGradient>
    <marker
       inkscape:stockid="Arrow1Lend"
       orient="auto"
       refY="0"
       refX="0"
       id="Arrow1Lend-17"
       style="overflow:visible">
      <path
         id="path3827-40"
         d="M 0,0 5,-5 -12.5,0 5,5 0,0 z"
         style="fill-rule:evenodd;stroke:#000000;stroke-width:1pt"
         transform="matrix(-0.8,0,0,-0.8,-10,0)"
         inkscape:connector-curvature="0" />
    </marker>
    <marker
       inkscape:stockid="Arrow1Lend"
       orient="auto"
       refY="0"
       refX="0"
       id="Arrow1Lend-5"
       style="overflow:visible">
      <path
         id="path3827-17"
         d="M 0,0 5,-5 -12.5,0 5,5 0,0 z"
         style="fill-rule:evenodd;stroke:#000000;stroke-width:1pt"
         transform="matrix(-0.8,0,0,-0.8,-10,0)"
         inkscape:connector-curvature="0" />
    </marker>
    <marker
       inkscape:stockid="Arrow1Lend"
       orient="auto"
       refY="0"
       refX="0"
       id="Arrow1Lend-6"
       style="overflow:visible">
      <path
         id="path3827-14"
         d="M 0,0 5,-5 -12.5,0 5,5 0,0 z"
         style="fill-rule:evenodd;stroke:#000000;stroke-width:1pt"
         transform="matrix(-0.8,0,0,-0.8,-10,0)"
         inkscape:connector-curvature="0" />
    </marker>
    <marker
       inkscape:stockid="Arrow1Lend"
       orient="auto"
       refY="0"
       refX="0"
       id="Arrow1Lend-174"
       style="overflow:visible">
      <path
         id="path3827-0"
         d="M 0,0 5,-5 -12.5,0 5,5 0,0 z"
         style="fill-rule:evenodd;stroke:#000000;stroke-width:1pt"
         transform="matrix(-0.8,0,0,-0.8,-10,0)"
         inkscape:connector-curvature="0" />
    </marker>
    <marker
       inkscape:stockid="Arrow1Lend"
       orient="auto"
       refY="0"
       refX="0"
       id="Arrow1Lend-55"
       style="overflow:visible">
      <path
         id="path3827-171"
         d="M 0,0 5,-5 -12.5,0 5,5 0,0 z"
         style="fill-rule:evenodd;stroke:#000000;stroke-width:1pt"
         transform="matrix(-0.8,0,0,-0.8,-10,0)"
         inkscape:connector-curvature="0" />
    </marker>
    <marker
       inkscape:stockid="Arrow1Lend"
       orient="auto"
       refY="0"
       refX="0"
       id="Arrow1Lend-82"
       style="overflow:visible">
      <path
         id="path3827-45"
         d="M 0,0 5,-5 -12.5,0 5,5 0,0 z"
         style="fill-rule:evenodd;stroke:#000000;stroke-width:1pt"
         transform="matrix(-0.8,0,0,-0.8,-10,0)"
         inkscape:connector-curvature="0" />
    </marker>
    <marker
       inkscape:stockid="Arrow1Lend"
       orient="auto"
       refY="0"
       refX="0"
       id="Arrow1Lend-93"
       style="overflow:visible">
      <path
         id="path3827-44"
         d="M 0,0 5,-5 -12.5,0 5,5 0,0 z"
         style="fill-rule:evenodd;stroke:#000000;stroke-width:1pt"
         transform="matrix(-0.8,0,0,-0.8,-10,0)"
         inkscape:connector-curvature="0" />
    </marker>
    <marker
       inkscape:stockid="Arrow1Lend"
       orient="auto"
       refY="0"
       refX="0"
       id="Arrow1Lend-4"
       style="overflow:visible">
      <path
         id="path3827-88"
         d="M 0,0 5,-5 -12.5,0 5,5 0,0 z"
         style="fill-rule:evenodd;stroke:#000000;stroke-width:1pt"
         transform="matrix(-0.8,0,0,-0.8,-10,0)"
         inkscape:connector-curvature="0" />
    </marker>
    <marker
       inkscape:stockid="Arrow1Lend"
       orient="auto"
       refY="0"
       refX="0"
       id="Arrow1Lend-45"
       style="overflow:visible">
      <path
         id="path3827-5"
         d="M 0,0 5,-5 -12.5,0 5,5 0,0 z"
         style="fill-rule:evenodd;stroke:#000000;stroke-width:1pt"
         transform="matrix(-0.8,0,0,-0.8,-10,0)"
         inkscape:connector-curvature="0" />
    </marker>
    <marker
       inkscape:stockid="Arrow1Lend"
       orient="auto"
       refY="0"
       refX="0"
       id="Arrow1Lend-71"
       style="overflow:visible">
      <path
         id="path3827-15"
         d="M 0,0 5,-5 -12.5,0 5,5 0,0 z"
         style="fill-rule:evenodd;stroke:#000000;stroke-width:1pt"
         transform="matrix(-0.8,0,0,-0.8,-10,0)"
         inkscape:connector-curvature="0" />
    </marker>
    <marker
       inkscape:stockid="Arrow1Lend"
       orient="auto"
       refY="0"
       refX="0"
       id="Arrow1Lend-57"
       style="overflow:visible">
      <path
         id="path3827-6"
         d="M 0,0 5,-5 -12.5,0 5,5 0,0 z"
         style="fill-rule:evenodd;stroke:#000000;stroke-width:1pt"
         transform="matrix(-0.8,0,0,-0.8,-10,0)"
         inkscape:connector-curvature="0" />
    </marker>
    <marker
       inkscape:stockid="Arrow1Lend"
       orient="auto"
       refY="0"
       refX="0"
       id="Arrow1Lend-43"
       style="overflow:visible">
      <path
         id="path3827-12"
         d="M 0,0 5,-5 -12.5,0 5,5 0,0 z"
         style="fill-rule:evenodd;stroke:#000000;stroke-width:1pt"
         transform="matrix(-0.8,0,0,-0.8,-10,0)"
         inkscape:connector-curvature="0" />
    </marker>
    <marker
       inkscape:stockid="Arrow1Lend"
       orient="auto"
       refY="0"
       refX="0"
       id="Arrow1Lend-3"
       style="overflow:visible">
      <path
         id="path3827-41"
         d="M 0,0 5,-5 -12.5,0 5,5 0,0 z"
         style="fill-rule:evenodd;stroke:#000000;stroke-width:1pt"
         transform="matrix(-0.8,0,0,-0.8,-10,0)"
         inkscape:connector-curvature="0" />
    </marker>
    <marker
       inkscape:stockid="Arrow1Lend"
       orient="auto"
       refY="0"
       refX="0"
       id="marker3404"
       style="overflow:visible">
      <path
         id="path3406"
         d="M 0,0 5,-5 -12.5,0 5,5 0,0 z"
         style="fill-rule:evenodd;stroke:#000000;stroke-width:1pt"
         transform="matrix(-0.8,0,0,-0.8,-10,0)"
         inkscape:connector-curvature="0" />
    </marker>
    <marker
       inkscape:stockid="Arrow1Lend"
       orient="auto"
       refY="0"
       refX="0"
       id="marker3408"
       style="overflow:visible">
      <path
         id="path3410"
         d="M 0,0 5,-5 -12.5,0 5,5 0,0 z"
         style="fill-rule:evenodd;stroke:#000000;stroke-width:1pt"
         transform="matrix(-0.8,0,0,-0.8,-10,0)"
         inkscape:connector-curvature="0" />
    </marker>
    <marker
       inkscape:stockid="Arrow1Lend"
       orient="auto"
       refY="0"
       refX="0"
       id="Arrow1Lend-89"
       style="overflow:visible">
      <path
         id="path3827-3"
         d="M 0,0 5,-5 -12.5,0 5,5 0,0 z"
         style="fill-rule:evenodd;stroke:#000000;stroke-width:1pt"
         transform="matrix(-0.8,0,0,-0.8,-10,0)"
         inkscape:connector-curvature="0" />
    </marker>
    <marker
       inkscape:stockid="Arrow1Lend"
       orient="auto"
       refY="0"
       refX="0"
       id="Arrow1Lend-46"
       style="overflow:visible">
      <path
         id="path3827-06"
         d="M 0,0 5,-5 -12.5,0 5,5 0,0 z"
         style="fill-rule:evenodd;stroke:#000000;stroke-width:1pt"
         transform="matrix(-0.8,0,0,-0.8,-10,0)"
         inkscape:connector-curvature="0" />
    </marker>
    <marker
       inkscape:stockid="Arrow1Lend"
       orient="auto"
       refY="0"
       refX="0"
       id="Arrow1Lend-18"
       style="overflow:visible">
      <path
         id="path3827-49"
         d="M 0,0 5,-5 -12.5,0 5,5 0,0 z"
         style="fill-rule:evenodd;stroke:#000000;stroke-width:1pt"
         transform="matrix(-0.8,0,0,-0.8,-10,0)"
         inkscape:connector-curvature="0" />
    </marker>
    <marker
       inkscape:stockid="Arrow1Lend"
       orient="auto"
       refY="0"
       refX="0"
       id="Arrow1Lend-15"
       style="overflow:visible">
      <path
         id="path3827-42"
         d="M 0,0 5,-5 -12.5,0 5,5 0,0 z"
         style="fill-rule:evenodd;stroke:#000000;stroke-width:1pt"
         transform="matrix(-0.8,0,0,-0.8,-10,0)"
         inkscape:connector-curvature="0" />
    </marker>
    <marker
       inkscape:stockid="Arrow1Lend"
       orient="auto"
       refY="0"
       refX="0"
       id="Arrow1Lend-97"
       style="overflow:visible">
      <path
         id="path3827-37"
         d="M 0,0 5,-5 -12.5,0 5,5 0,0 z"
         style="fill-rule:evenodd;stroke:#000000;stroke-width:1pt"
         transform="matrix(-0.8,0,0,-0.8,-10,0)"
         inkscape:connector-curvature="0" />
    </marker>
    <marker
       inkscape:stockid="Arrow1Lend"
       orient="auto"
       refY="0"
       refX="0"
       id="Arrow1Lend-60"
       style="overflow:visible">
      <path
         id="path3827-16"
         d="M 0,0 5,-5 -12.5,0 5,5 0,0 z"
         style="fill-rule:evenodd;stroke:#000000;stroke-width:1pt"
         transform="matrix(-0.8,0,0,-0.8,-10,0)"
         inkscape:connector-curvature="0" />
    </marker>
    <marker
       inkscape:stockid="Arrow1Lend"
       orient="auto"
       refY="0"
       refX="0"
       id="Arrow1Lend-1740"
       style="overflow:visible">
      <path
         id="path3827-9"
         d="M 0,0 5,-5 -12.5,0 5,5 0,0 z"
         style="fill-rule:evenodd;stroke:#000000;stroke-width:1pt"
         transform="matrix(-0.8,0,0,-0.8,-10,0)"
         inkscape:connector-curvature="0" />
    </marker>
    <marker
       inkscape:stockid="Arrow1Lend"
       orient="auto"
       refY="0"
       refX="0"
       id="Arrow1Lend-88"
       style="overflow:visible">
      <path
         id="path3827-24"
         d="M 0,0 5,-5 -12.5,0 5,5 0,0 z"
         style="fill-rule:evenodd;stroke:#000000;stroke-width:1pt"
         transform="matrix(-0.8,0,0,-0.8,-10,0)"
         inkscape:connector-curvature="0" />
    </marker>
    <marker
       inkscape:stockid="Arrow1Lend"
       orient="auto"
       refY="0"
       refX="0"
       id="Arrow1Lend-51"
       style="overflow:visible">
      <path
         id="path3827-71"
         d="M 0,0 5,-5 -12.5,0 5,5 0,0 z"
         style="fill-rule:evenodd;stroke:#000000;stroke-width:1pt"
         transform="matrix(-0.8,0,0,-0.8,-10,0)"
         inkscape:connector-curvature="0" />
    </marker>
    <marker
       inkscape:stockid="Arrow1Lend"
       orient="auto"
       refY="0"
       refX="0"
       id="Arrow1Lend-2"
       style="overflow:visible">
      <path
         id="path3827-76"
         d="M 0,0 5,-5 -12.5,0 5,5 0,0 z"
         style="fill-rule:evenodd;stroke:#000000;stroke-width:1pt"
         transform="matrix(-0.8,0,0,-0.8,-10,0)"
         inkscape:connector-curvature="0" />
    </marker>
    <marker
       inkscape:stockid="Arrow1Lend"
       orient="auto"
       refY="0"
       refX="0"
       id="Arrow1Lend-42"
       style="overflow:visible">
      <path
         id="path3827-32"
         d="M 0,0 5,-5 -12.5,0 5,5 0,0 z"
         style="fill-rule:evenodd;stroke:#000000;stroke-width:1pt"
         transform="matrix(-0.8,0,0,-0.8,-10,0)"
         inkscape:connector-curvature="0" />
    </marker>
    <marker
       inkscape:stockid="Arrow1Lend"
       orient="auto"
       refY="0"
       refX="0"
       id="marker3240"
       style="overflow:visible">
      <path
         id="path3242"
         d="M 0,0 5,-5 -12.5,0 5,5 0,0 z"
         style="fill-rule:evenodd;stroke:#000000;stroke-width:1pt"
         transform="matrix(-0.8,0,0,-0.8,-10,0)"
         inkscape:connector-curvature="0" />
    </marker>
    <marker
       inkscape:stockid="Arrow1Lend"
       orient="auto"
       refY="0"
       refX="0"
       id="Arrow1Lend-79"
       style="overflow:visible">
      <path
         id="path3827-54"
         d="M 0,0 5,-5 -12.5,0 5,5 0,0 z"
         style="fill-rule:evenodd;stroke:#000000;stroke-width:1pt"
         transform="matrix(-0.8,0,0,-0.8,-10,0)"
         inkscape:connector-curvature="0" />
    </marker>
    <marker
       inkscape:stockid="Arrow1Lend"
       orient="auto"
       refY="0"
       refX="0"
       id="Arrow1Lend-12"
       style="overflow:visible">
      <path
         id="path3827-33"
         d="M 0,0 5,-5 -12.5,0 5,5 0,0 z"
         style="fill-rule:evenodd;stroke:#000000;stroke-width:1pt"
         transform="matrix(-0.8,0,0,-0.8,-10,0)"
         inkscape:connector-curvature="0" />
    </marker>
  </defs>
  <sodipodi:namedview
     id="base"
     pagecolor="#ffffff"
     bordercolor="#666666"
     borderopacity="1.0"
     inkscape:pageopacity="0.0"
     inkscape:pageshadow="2"
     inkscape:zoom="1.75"
     inkscape:cx="371.76733"
     inkscape:cy="178.23761"
     inkscape:document-units="px"
     inkscape:current-layer="layer1"
     showgrid="false"
     showguides="true"
     inkscape:guide-bbox="true"
     inkscape:window-width="1920"
     inkscape:window-height="1018"
     inkscape:window-x="-8"
     inkscape:window-y="-8"
     inkscape:window-maximized="1"
     fit-margin-top="-2.7755576e-017"
     fit-margin-left="0"
     fit-margin-right="0"
     fit-margin-bottom="0"
     inkscape:snap-global="true">
    <sodipodi:guide
       orientation="0,1"
       position="601.32704,913.88927"
       id="guide3007" />
  </sodipodi:namedview>
  <metadata
     id="metadata7">
    <rdf:RDF>
      <cc:Work
         rdf:about="">
        <dc:format>image/svg+xml</dc:format>
        <dc:type
           rdf:resource="http://purl.org/dc/dcmitype/StillImage" />
        <dc:title></dc:title>
      </cc:Work>
    </rdf:RDF>
  </metadata>
  <g
     inkscape:label="Layer 1"
     inkscape:groupmode="layer"
     id="layer1"
     transform="translate(-10.101525,-306.85393)">
    <path
       sodipodi:type="arc"
       style="fill:none;stroke:#000000;stroke-width:3.0869813;stroke-linecap:butt;stroke-linejoin:miter;stroke-miterlimit:4;stroke-opacity:1;stroke-dasharray:none"
       id="path3009-1"
       sodipodi:cx="391.42856"
       sodipodi:cy="143.79076"
       sodipodi:rx="65.714287"
       sodipodi:ry="62.857143"
       d="m 457.14285,143.79076 c 0,34.71504 -29.42129,62.85714 -65.71429,62.85714 -36.293,0 -65.71429,-28.1421 -65.71429,-62.85714 0,-34.71505 29.42129,-62.857147 65.71429,-62.857147 36.293,0 65.71429,28.142097 65.71429,62.857147 z"
       transform="matrix(0.63470696,0,0,0.66133079,-191.03741,260.49203)" />
    <text
       xml:space="preserve"
       style="font-size:7.48815584px;font-style:oblique;font-weight:normal;line-height:125%;letter-spacing:0px;word-spacing:0px;baseline-shift:sub;fill:#000000;fill-opacity:1;stroke:none;font-family:Sans;-inkscape-font-specification:Sans Oblique"
       x="307.39792"
       y="276.88824"
       id="text4734"
       sodipodi:linespacing="125%"
       transform="scale(0.99622312,1.0037912)"><tspan
         sodipodi:role="line"
         id="tspan4736"
         x="307.39792"
         y="276.88824" /></text>
    <text
       xml:space="preserve"
       style="font-size:38.40025711px;font-style:normal;font-weight:normal;line-height:125%;letter-spacing:0px;word-spacing:0px;fill:#000000;fill-opacity:1;stroke:none;font-family:Sans"
       x="300.60962"
       y="264.28156"
       id="text4738"
       sodipodi:linespacing="125%"
       transform="scale(0.99622312,1.0037912)"><tspan
         sodipodi:role="line"
         id="tspan4740"
         x="0"
         y="0"><tspan
           style="font-size:24.96051979px;baseline-shift:sub"
           id="tspan4742" /></tspan></text>
    <flowRoot
       xml:space="preserve"
       id="flowRoot4744"
       style="font-size:40px;font-style:normal;font-weight:normal;line-height:125%;letter-spacing:0px;word-spacing:0px;fill:#000000;fill-opacity:1;stroke:none;font-family:Sans"
       transform="matrix(0.95638062,0,0,0.96364603,-41.5559,214.87407)"><flowRegion
         id="flowRegion4746"><rect
           id="rect4748"
           width="61.619305"
           height="43.436558"
           x="360.62445"
           y="37.158875" /></flowRegion><flowPara
         id="flowPara4750" /></flowRoot>    <text
       xml:space="preserve"
       style="font-size:38.40025711px;font-style:normal;font-weight:normal;line-height:125%;letter-spacing:0px;word-spacing:0px;fill:#000000;fill-opacity:1;stroke:none;font-family:Sans"
       x="38.47924"
       y="366.8598"
       id="text3021"
       sodipodi:linespacing="125%"
       transform="scale(0.99622312,1.0037912)"><tspan
         sodipodi:role="line"
         id="tspan3023"
         x="38.47924"
         y="366.8598"
         style="font-style:normal;font-variant:normal;font-weight:normal;font-stretch:normal;font-family:Serif;-inkscape-font-specification:Serif">M<tspan
   style="font-size:24.96051788px;baseline-shift:sub"
   id="tspan3141">1</tspan></tspan></text>
    <path
       sodipodi:type="arc"
       style="fill:none;stroke-width:1.20000005;stroke-miterlimit:4;stroke-dasharray:none;stroke-dashoffset:0.71999973"
       id="path3099"
       sodipodi:cx="212.13203"
       sodipodi:cy="417.48129"
       sodipodi:rx="58.588848"
       sodipodi:ry="57.07362"
       d="m 270.72088,417.48129 c 0,31.52089 -26.23112,57.07362 -58.58885,57.07362 -32.35772,0 -58.58884,-25.55273 -58.58884,-57.07362 0,-31.52089 26.23112,-57.07362 58.58884,-57.07362 32.35773,0 58.58885,25.55273 58.58885,57.07362 z"
       transform="matrix(0.95638062,0,0,0.96364603,-169.5559,204.87407)" />
    <flowRoot
       xml:space="preserve"
       id="flowRoot3109"
       style="font-size:40px;font-style:normal;font-weight:normal;line-height:125%;letter-spacing:0px;word-spacing:0px;fill:#000000;fill-opacity:1;stroke:none;font-family:Sans"
       transform="matrix(0.95638062,0,0,0.96364603,-41.5559,214.87407)"><flowRegion
         id="flowRegion3111"><rect
           id="rect3113"
           width="153.54318"
           height="89.90358"
           x="171.72594"
           y="476.57523" /></flowRegion><flowPara
         id="flowPara3115" /></flowRoot>    <rect
       style="fill:none;stroke-width:1.20000005;stroke-miterlimit:4;stroke-dasharray:none;stroke-dashoffset:0.71999973"
       id="rect3123"
       width="299.48798"
       height="264.77283"
       x="-15.557243"
       y="556.33893" />
    <rect
       style="fill:none;stroke-width:2;stroke-miterlimit:4;stroke-dasharray:none;stroke-dashoffset:0.71999973"
       id="rect4175"
       width="187.42152"
       height="454.59158"
       x="378.7612"
       y="12.029968" />
    <rect
       style="fill:none;stroke-width:0.1;stroke-miterlimit:4;stroke-dasharray:none;stroke-dashoffset:0.71999973"
       id="rect4177"
       width="642.45007"
       height="582.11084"
       x="-29.894997"
       y="9.1096497" />
    <flowRoot
       xml:space="preserve"
       id="flowRoot3165"
       style="font-size:40px;font-style:normal;font-weight:normal;line-height:125%;letter-spacing:0px;word-spacing:0px;fill:#000000;fill-opacity:1;stroke:none;font-family:Sans"
       transform="translate(10.101525,209.85065)"><flowRegion
         id="flowRegion3167"><rect
           id="rect3169"
           width="412.97711"
           height="437.40457"
           x="70.229004"
           y="-140.96901" /></flowRegion><flowPara
         id="flowPara3171" /></flowRoot>    <path
       style="fill:none;stroke:#000000;stroke-width:1.92001283;stroke-linecap:butt;stroke-linejoin:miter;stroke-miterlimit:4;stroke-opacity:1;stroke-dasharray:none;marker-start:none;marker-end:url(#Arrow1Lend)"
       d="M 76.524281,392.82976 183.57452,553.72794"
       id="path3050-5-1"
       inkscape:connector-curvature="0"
       sodipodi:nodetypes="cc" />
    <text
       xml:space="preserve"
       style="font-size:40px;font-style:normal;font-weight:normal;line-height:125%;letter-spacing:0px;word-spacing:0px;fill:#000000;fill-opacity:1;stroke:none;font-family:Sans"
       x="296.1832"
       y="271.45847"
       id="text3214"
       sodipodi:linespacing="125%"
       transform="translate(10.101525,211.85054)"><tspan
         sodipodi:role="line"
         id="tspan3216"
         x="296.1832"
         y="271.45847" /></text>
    <text
       xml:space="preserve"
       style="font-size:40px;font-style:normal;font-weight:normal;line-height:125%;letter-spacing:0px;word-spacing:0px;fill:#000000;fill-opacity:1;stroke:none;font-family:Sans"
       x="183.20612"
       y="72.985199"
       id="text3133"
       sodipodi:linespacing="125%"
       transform="translate(10.101525,211.85054)"><tspan
         sodipodi:role="line"
         id="tspan3135"
         x="183.20612"
         y="72.985199" /></text>
    <text
       xml:space="preserve"
       style="font-size:40px;font-style:normal;font-weight:normal;line-height:125%;letter-spacing:0px;word-spacing:0px;fill:#000000;fill-opacity:1;stroke:none;font-family:Sans"
       x="176.33588"
       y="65.351616"
       id="text3137"
       sodipodi:linespacing="125%"
       transform="translate(10.101525,211.85054)"><tspan
         sodipodi:role="line"
         id="tspan3139"
         x="176.33588"
         y="65.351616" /></text>
    <path
       sodipodi:type="arc"
       style="fill:none;stroke:#000000;stroke-width:3.0869813;stroke-linecap:butt;stroke-linejoin:miter;stroke-miterlimit:4;stroke-opacity:1;stroke-dasharray:none"
       id="path3009-1-2"
       sodipodi:cx="391.42856"
       sodipodi:cy="143.79076"
       sodipodi:rx="65.714287"
       sodipodi:ry="62.857143"
       d="m 457.14285,143.79076 c 0,34.71504 -29.42129,62.85714 -65.71429,62.85714 -36.293,0 -65.71429,-28.1421 -65.71429,-62.85714 0,-34.71505 29.42129,-62.857147 65.71429,-62.857147 36.293,0 65.71429,28.142097 65.71429,62.857147 z"
       transform="matrix(0.63470696,0,0,0.66133079,-87.53712,260.27816)" />
    <text
       xml:space="preserve"
       style="font-size:38.40025711px;font-style:normal;font-weight:normal;line-height:125%;letter-spacing:0px;word-spacing:0px;fill:#000000;fill-opacity:1;stroke:none;font-family:Sans"
       x="146.38741"
       y="364.65466"
       id="text3021-7"
       sodipodi:linespacing="125%"
       transform="scale(0.99622312,1.0037912)"><tspan
         sodipodi:role="line"
         id="tspan3023-6"
         x="146.38741"
         y="364.65466"
         style="font-style:normal;font-variant:normal;font-weight:normal;font-stretch:normal;font-family:Serif;-inkscape-font-specification:Serif">V<tspan
   style="font-size:24.96051788px;baseline-shift:sub"
   id="tspan3143">1</tspan></tspan></text>
    <text
       xml:space="preserve"
       style="font-size:38.40025711px;font-style:normal;font-weight:normal;line-height:125%;letter-spacing:0px;word-spacing:0px;fill:#000000;fill-opacity:1;stroke:none;font-family:Sans"
       x="213.7081"
       y="390.02982"
       id="text3009-2-9-0"
       sodipodi:linespacing="125%"
       transform="scale(0.99622312,1.0037912)"><tspan
         sodipodi:role="line"
         id="tspan3011-2-0-6"
         x="213.7081"
         y="390.02982"
         style="font-size:36px;font-style:normal;font-variant:normal;font-weight:normal;font-stretch:normal;baseline-shift:sub;font-family:Serif;-inkscape-font-specification:Serif" /></text>
    <path
       sodipodi:type="arc"
       style="fill:none;stroke:#000000;stroke-width:3.0869813;stroke-linecap:butt;stroke-linejoin:miter;stroke-miterlimit:4;stroke-opacity:1;stroke-dasharray:none"
       id="path3009-1-1"
       sodipodi:cx="391.42856"
       sodipodi:cy="143.79076"
       sodipodi:rx="65.714287"
       sodipodi:ry="62.857143"
       d="m 457.14285,143.79076 c 0,34.71504 -29.42129,62.85714 -65.71429,62.85714 -36.293,0 -65.71429,-28.1421 -65.71429,-62.85714 0,-34.71505 29.42129,-62.857147 65.71429,-62.857147 36.293,0 65.71429,28.142097 65.71429,62.857147 z"
       transform="matrix(0.63470696,0,0,0.66133079,25.995909,259.77869)" />
    <text
       xml:space="preserve"
       style="font-size:38.40025711px;font-style:normal;font-weight:normal;line-height:125%;letter-spacing:0px;word-spacing:0px;fill:#000000;fill-opacity:1;stroke:none;font-family:Sans"
       x="256.33542"
       y="366.1496"
       id="text3021-74"
       sodipodi:linespacing="125%"
       transform="scale(0.99622312,1.0037912)"><tspan
         sodipodi:role="line"
         id="tspan3023-0"
         x="256.33542"
         y="366.1496"
         style="font-style:normal;font-variant:normal;font-weight:normal;font-stretch:normal;font-family:Serif;-inkscape-font-specification:Serif">M<tspan
   style="font-size:24.96051788px;baseline-shift:sub"
   id="tspan3141-9">2</tspan></tspan></text>
    <path
       sodipodi:type="arc"
       style="fill:none;stroke:#000000;stroke-width:3.0869813;stroke-linecap:butt;stroke-linejoin:miter;stroke-miterlimit:4;stroke-opacity:1;stroke-dasharray:none"
       id="path3009-1-2-4"
       sodipodi:cx="391.42856"
       sodipodi:cy="143.79076"
       sodipodi:rx="65.714287"
       sodipodi:ry="62.857143"
       d="m 457.14285,143.79076 c 0,34.71504 -29.42129,62.85714 -65.71429,62.85714 -36.293,0 -65.71429,-28.1421 -65.71429,-62.85714 0,-34.71505 29.42129,-62.857147 65.71429,-62.857147 36.293,0 65.71429,28.142097 65.71429,62.857147 z"
       transform="matrix(0.63470696,0,0,0.66133079,129.49619,259.56482)" />
    <text
       xml:space="preserve"
       style="font-size:38.40025711px;font-style:normal;font-weight:normal;line-height:125%;letter-spacing:0px;word-spacing:0px;fill:#000000;fill-opacity:1;stroke:none;font-family:Sans"
       x="364.24335"
       y="363.94446"
       id="text3021-7-8"
       sodipodi:linespacing="125%"
       transform="scale(0.99622312,1.0037912)"><tspan
         sodipodi:role="line"
         id="tspan3023-6-8"
         x="364.24335"
         y="363.94446"
         style="font-style:normal;font-variant:normal;font-weight:normal;font-stretch:normal;font-family:Serif;-inkscape-font-specification:Serif">V<tspan
   style="font-size:24.96051788px;baseline-shift:sub"
   id="tspan3143-2">2</tspan></tspan></text>
    <path
       style="fill:none;stroke:#000000;stroke-width:1.92001283;stroke-linecap:butt;stroke-linejoin:miter;stroke-miterlimit:4;stroke-opacity:1;stroke-dasharray:none;marker-start:none;marker-end:url(#Arrow1Lend)"
       d="m 168.7534,395.36819 33.82536,145.40235"
       id="path3050-5-1-1"
       inkscape:connector-curvature="0"
       sodipodi:nodetypes="cc" />
    <path
       style="fill:none;stroke:#000000;stroke-width:1.92001295;stroke-linecap:butt;stroke-linejoin:miter;stroke-miterlimit:4;stroke-opacity:1;stroke-dasharray:none;marker-start:none;marker-end:url(#Arrow1Lend)"
       d="M 262.55851,395.011 234.92033,541.62345"
       id="path3050-5-1-2"
       inkscape:connector-curvature="0"
       sodipodi:nodetypes="cc" />
    <path
       style="fill:none;stroke:#000000;stroke-width:1.92001307;stroke-linecap:butt;stroke-linejoin:miter;stroke-miterlimit:4;stroke-opacity:1;stroke-dasharray:none;marker-start:none;marker-end:url(#Arrow1Lend)"
       d="M 354.88704,390.3445 253.77152,552.81517"
       id="path3050-5-1-1-7"
       inkscape:connector-curvature="0"
       sodipodi:nodetypes="cc" />
    <path
       sodipodi:type="arc"
       style="fill:none;stroke:#000000;stroke-width:3.61710501;stroke-linecap:butt;stroke-linejoin:miter;stroke-miterlimit:4;stroke-opacity:1;stroke-dasharray:none"
       id="path3009-1-2-6"
       sodipodi:cx="391.42856"
       sodipodi:cy="143.79076"
       sodipodi:rx="65.714287"
       sodipodi:ry="62.857143"
       d="m 457.14285,143.79076 c 0,34.71504 -29.42129,62.85714 -65.71429,62.85714 -36.293,0 -65.71429,-28.1421 -65.71429,-62.85714 0,-34.71505 29.42129,-62.857147 65.71429,-62.857147 36.293,0 65.71429,28.142097 65.71429,62.857147 z"
       transform="matrix(0.54168784,0,0,0.56440219,6.478487,501.08177)" />
    <path
       sodipodi:type="arc"
       style="fill:#000000;fill-opacity:0.19607843;stroke:#000000;stroke-width:3.0869813;stroke-linecap:butt;stroke-linejoin:miter;stroke-miterlimit:4;stroke-opacity:1;stroke-dasharray:none"
       id="path3009-1-2-9-1-1"
       sodipodi:cx="391.42856"
       sodipodi:cy="143.79076"
       sodipodi:rx="65.714287"
       sodipodi:ry="62.857143"
       d="m 457.14285,143.79076 c 0,34.71504 -29.42129,62.85714 -65.71429,62.85714 -36.293,0 -65.71429,-28.1421 -65.71429,-62.85714 0,-34.71505 29.42129,-62.857147 65.71429,-62.857147 36.293,0 65.71429,28.142097 65.71429,62.857147 z"
       transform="matrix(0.63470696,0,0,0.66133079,-29.384384,487.75872)" />
    <text
       xml:space="preserve"
       style="font-size:38.40025711px;font-style:normal;font-weight:normal;line-height:125%;letter-spacing:0px;word-spacing:0px;fill:#000000;fill-opacity:1;stroke:none;font-family:Sans"
       x="204.6893"
       y="593.41998"
       id="text3021-7-3-8"
       sodipodi:linespacing="125%"
       transform="scale(0.99622312,1.0037912)"><tspan
         sodipodi:role="line"
         id="tspan3023-6-1-9"
         x="204.6893"
         y="593.41998"
         style="font-style:normal;font-variant:normal;font-weight:normal;font-stretch:normal;font-family:Serif;-inkscape-font-specification:Serif">P<tspan
   style="font-size:24.96051788px;baseline-shift:sub"
   id="tspan3136-2">3</tspan></tspan></text>
  </g>
</svg>
